<?xml version="1.0" encoding="UTF-8"?>
<svg width="188px" height="63px" viewBox="0 0 188 63" version="1.1" xmlns="http://www.w3.org/2000/svg" xmlns:xlink="http://www.w3.org/1999/xlink">
    <!-- Generator: Sketch 46.2 (44496) - http://www.bohemiancoding.com/sketch -->
    <title>PreQual_LOGO_2017_v.2.1</title>
    <desc>Created with Sketch.</desc>
    <defs></defs>
    <g id="Symbols" stroke="none" stroke-width="1" fill="none" fill-rule="evenodd">
        <g id="Sidebar-user" transform="translate(-94.000000, -18.000000)">
            <g id="Sidebar">
                <g id="PreQual_LOGO_2017_v.2.1" transform="translate(94.000000, 18.000000)">
                    <g id="Group" transform="translate(42.000000, 11.000000)" fill-rule="nonzero" fill="#FFFFFF">
                        <path d="M0.207829181,0.998305085 C1.81850534,0.73559322 3.94875445,0.472881356 6.59857651,0.472881356 C9.92384342,0.472881356 12.313879,1.26101695 13.8725979,2.62711864 C15.2754448,3.88813559 16.1587189,5.77966102 16.1587189,8.09152542 C16.1587189,10.4559322 15.483274,12.3474576 14.1843416,13.6610169 C12.4177936,15.5525424 9.56014235,16.5508475 6.28683274,16.5508475 C5.29964413,16.5508475 4.36441281,16.4983051 3.58505338,16.340678 L3.58505338,26.7966102 L0.259786477,26.7966102 L0.259786477,0.998305085 L0.207829181,0.998305085 Z M3.53309609,13.6084746 C4.26049822,13.8186441 5.19572954,13.8711864 6.28683274,13.8711864 C10.3395018,13.8711864 12.7814947,11.8745763 12.7814947,8.30169492 C12.7814947,4.83389831 10.3395018,3.15254237 6.7024911,3.15254237 C5.24768683,3.15254237 4.15658363,3.25762712 3.53309609,3.41525424 L3.53309609,13.6084746 Z" id="Shape"></path>
                        <path d="M20.2633452,1.05084746 C21.9779359,0.683050847 24.3679715,0.525423729 26.6540925,0.525423729 C30.2391459,0.525423729 32.5252669,1.20847458 34.1359431,2.67966102 C35.4348754,3.83559322 36.1622776,5.6220339 36.1622776,7.67118644 C36.1622776,11.1389831 34.0320285,13.3983051 31.2782918,14.3440678 L31.2782918,14.4491525 C33.252669,15.1322034 34.4476868,17.0237288 35.0711744,19.7033898 C35.9024911,23.3288136 36.5259786,25.8508475 37.0455516,26.9016949 L33.6163701,26.9016949 C33.2007117,26.1661017 32.6291815,23.9067797 31.9017794,20.6491525 C31.1224199,17.0237288 29.7715302,15.6576271 26.7060498,15.5525424 L23.5366548,15.5525424 L23.5366548,26.9016949 L20.2633452,26.9016949 L20.2633452,1.05084746 Z M23.5886121,12.9779661 L27.0177936,12.9779661 C30.602847,12.9779661 32.8370107,10.9813559 32.8370107,7.98644068 C32.8370107,4.62372881 30.3950178,3.15254237 26.8619217,3.1 C25.2512456,3.1 24.1081851,3.25762712 23.5366548,3.41525424 L23.5366548,12.9779661 L23.5886121,12.9779661 Z" id="Shape"></path>
                        <polygon id="Shape" points="53.9316726 14.6067797 43.8519573 14.6067797 43.8519573 24.0644068 55.0747331 24.0644068 55.0747331 26.9016949 40.5266904 26.9016949 40.5266904 0.683050847 54.5032028 0.683050847 54.5032028 3.52033898 43.8519573 3.52033898 43.8519573 11.7694915 53.9316726 11.7694915"></polygon>
                        <path d="M80.3779359,30.6847458 C76.8967972,29.7389831 73.4676157,28.6881356 70.4540925,27.6372881 C69.9345196,27.4271186 69.3629893,27.2694915 68.8953737,27.2694915 C62.7644128,27.059322 57.516726,22.4355932 57.516726,14.0288136 C57.516726,5.6220339 62.6085409,0.262711864 69.5708185,0.262711864 C76.5850534,0.262711864 81.1572954,5.77966102 81.1572954,13.5033898 C81.1572954,20.2288136 78.0918149,24.5372881 73.7793594,26.0610169 L73.7793594,26.2186441 C76.3252669,26.9016949 79.1309609,27.479661 81.3651246,27.9 L80.3779359,30.6847458 Z M77.6241993,13.6610169 C77.6241993,8.40677966 74.9224199,3.04745763 69.4669039,3.04745763 C63.8035587,3.04745763 61.0498221,8.30169492 61.1017794,13.9762712 C61.0498221,19.5457627 64.1153025,24.5372881 69.311032,24.5372881 C74.6106762,24.5372881 77.6241993,19.6508475 77.6241993,13.6610169 Z" id="Shape"></path>
                        <path d="M88.4313167,0.683050847 L88.4313167,16.1830508 C88.4313167,22.0677966 90.9772242,24.5372881 94.458363,24.5372881 C98.3032028,24.5372881 100.745196,21.9627119 100.745196,16.1830508 L100.745196,0.683050847 L104.12242,0.683050847 L104.12242,15.920339 C104.12242,23.959322 99.913879,27.2694915 94.3544484,27.2694915 C89.0548043,27.2694915 85.0540925,24.2220339 85.0540925,16.0779661 L85.0540925,0.683050847 L88.4313167,0.683050847 Z" id="Shape"></path>
                        <path d="M112.435587,18.6525424 L109.733808,26.9016949 L106.304626,26.9016949 L115.085409,0.73559322 L119.138078,0.73559322 L127.970819,26.9016949 L124.385765,26.9016949 L121.580071,18.6525424 L112.435587,18.6525424 Z M120.904626,15.9728814 L118.358719,8.45932203 C117.787189,6.72542373 117.423488,5.20169492 117.007829,3.6779661 L116.955872,3.6779661 C116.592171,5.25423729 116.124555,6.83050847 115.65694,8.40677966 L113.111032,15.9728814 L120.904626,15.9728814 L120.904626,15.9728814 Z" id="Shape"></path>
                        <polygon id="Shape" points="131.348043 0.683050847 134.67331 0.683050847 134.67331 24.0118644 145.740214 24.0118644 145.740214 26.8491525 131.348043 26.8491525"></polygon>
                    </g>
                    <path d="M3.6911315,39.5634638 L3.6911315,9.29062871 C3.6911315,8.87307236 4.05504587,8.5599051 4.41896024,8.5599051 L9.56574924,8.5599051 C8.73394495,9.34282325 8.11009174,10.3345196 8.11009174,11.4827995 L25.8899083,11.4827995 C25.8899083,10.3345196 25.266055,9.34282325 24.4342508,8.5599051 L29.5810398,8.5599051 C29.9969419,8.5599051 30.3088685,8.9252669 30.3088685,9.29062871 L30.3088685,11.3784104 L30.3088685,11.5349941 L30.3088685,18.0071174 L34,18.0071174 L34,11.5349941 L34,11.3784104 L34,9.29062871 C34,6.83748517 32.0244648,4.85409253 29.5810398,4.85409253 L21.9908257,4.85409253 C21.9388379,2.13997628 19.7033639,0 17,0 C14.2966361,0 12.0611621,2.19217082 12.0091743,4.85409253 L4.41896024,4.85409253 C1.97553517,4.85409253 0,6.83748517 0,9.29062871 L0,39.5634638 C0,42.0166074 1.97553517,44 4.41896024,44 L15.7003058,44 L15.7003058,40.2941874 L4.41896024,40.2941874 C4.05504587,40.346382 3.6911315,39.9810202 3.6911315,39.5634638 Z M17,2.92289442 C18.1437309,2.92289442 19.0275229,3.8623962 19.0275229,4.95848161 C19.0275229,6.10676157 18.0917431,6.9940688 17,6.9940688 C15.8562691,6.9940688 14.9724771,6.05456702 14.9724771,4.95848161 C14.9724771,3.8623962 15.9082569,2.92289442 17,2.92289442 Z" id="Shape" fill="#FFFFFF" fill-rule="nonzero"></path>
                    <g id="Group" transform="translate(7.000000, 15.000000)">
                        <ellipse id="Oval" fill="#FFFFFF" fill-rule="nonzero" cx="1.2075" cy="1.62" rx="1" ry="1.14"></ellipse>
                        <path d="M4.3575,1.62 L20.8425,1.62" id="Shape" stroke="#FFFFFF" stroke-width="2" stroke-linecap="round"></path>
                    </g>
                    <g id="Group" transform="translate(7.000000, 22.000000)">
                        <ellipse id="Oval" fill="#FFFFFF" fill-rule="nonzero" cx="1.2075" cy="1.32" rx="1" ry="1.14"></ellipse>
                        <path d="M4.3575,1.32 L20.8425,1.32" id="Shape" stroke="#FFFFFF" stroke-width="2" stroke-linecap="round"></path>
                    </g>
                    <g id="Group" transform="translate(7.000000, 28.000000)">
                        <ellipse id="Oval" fill="#FFFFFF" fill-rule="nonzero" cx="1.2075" cy="1.62" rx="1" ry="1.14"></ellipse>
                        <path d="M4.3575,1.62 L20.8425,1.62" id="Shape" stroke="#FFFFFF" stroke-width="2" stroke-linecap="round"></path>
                    </g>
                    <g id="Group" transform="translate(7.000000, 35.000000)">
                        <ellipse id="Oval" fill="#FFFFFF" fill-rule="nonzero" cx="1.2075" cy="1.38" rx="1" ry="1.14"></ellipse>
                        <path d="M4.3575,1.38 L20.8425,1.38" id="Shape" stroke="#FFFFFF" stroke-width="2" stroke-linecap="round"></path>
                    </g>
                    <path d="M19.9795918,43 C19.9795918,43 34.8176871,20.0115069 51,17.02866 C51,17.02866 34.7659864,15.7943785 22.6163265,29.5257602 L19.7727891,20.7829329 L13,22.6343551 L19.9795918,43 Z" id="Shape" fill="#FFFFFF" fill-rule="nonzero"></path>
                    <g id="Group" transform="translate(5.000000, 51.000000)" stroke="#FFFFFF" fill-rule="nonzero" stroke-width="0.5" fill="#FFFFFF">
                        <polygon id="Shape" points="3.02682216 4.7 3.02682216 8.65 2.55714286 8.65 2.55714286 4.7 0.208746356 0.75 0.730612245 0.75 2.76588921 4.2 4.85335277 0.75 5.37521866 0.75"></polygon>
                        <path d="M10.8026239,8.05 C10.3329446,8.5 9.75889213,8.75 9.02827988,8.75 C8.34985423,8.75 7.72361516,8.5 7.25393586,8.05 C6.78425656,7.6 6.52332362,7.05 6.52332362,6.35 C6.52332362,5.7 6.78425656,5.15 7.25393586,4.65 C7.72361516,4.2 8.29766764,3.95 9.02827988,3.95 C9.70670554,3.95 10.280758,4.2 10.8026239,4.65 C11.3244898,5.1 11.5332362,5.65 11.5332362,6.35 C11.5332362,7.05 11.2723032,7.6 10.8026239,8.05 Z M10.4895044,5 C10.1241983,4.6 9.60233236,4.45 9.08046647,4.45 C8.55860058,4.45 8.08892128,4.65 7.67142857,5.05 C7.25393586,5.45 7.0451895,5.9 7.0451895,6.4 C7.0451895,6.95 7.25393586,7.4 7.61924198,7.75 C8.03673469,8.15 8.50641399,8.3 9.02827988,8.3 C9.60233236,8.3 10.0720117,8.1 10.4373178,7.75 C10.8548105,7.35 11.0113703,6.9 11.0113703,6.4 C11.0635569,5.85 10.8548105,5.4 10.4895044,5 Z" id="Shape"></path>
                        <path d="M17.8478134,8.25 C17.5346939,8.6 17.0650146,8.75 16.4909621,8.75 C15.9169096,8.75 15.4994169,8.6 15.1862974,8.25 C14.8731778,7.95 14.7166181,7.5 14.7166181,6.9 L14.7166181,4.05 L15.1862974,4.05 L15.1862974,6.9 C15.1862974,7.35 15.2906706,7.65 15.4994169,7.9 C15.7081633,8.15 16.0212828,8.25 16.4909621,8.25 C17.3781341,8.25 17.8478134,7.8 17.8478134,6.9 L17.8478134,4.05 L18.3174927,4.05 L18.3174927,6.9 C18.3174927,7.5 18.1609329,7.95 17.8478134,8.25 Z" id="Shape"></path>
                        <path d="M24.1102041,4.75 C24.0058309,4.65 23.8492711,4.6 23.6927114,4.55 C23.5361516,4.5 23.4317784,4.45 23.2752187,4.45 C23.1186589,4.45 23.0142857,4.5 22.9099125,4.55 C22.8055394,4.65 22.7011662,4.7 22.596793,4.85 C22.4924198,4.95 22.4402332,5.1 22.3880466,5.25 C22.3358601,5.4 22.3358601,5.5 22.3358601,5.65 L22.3358601,8.65 L21.8661808,8.65 L21.8661808,4.05 L22.3358601,4.05 L22.3358601,4.65 C22.4402332,4.5 22.5446064,4.3 22.7533528,4.2 C22.9099125,4.05 23.1186589,4 23.2752187,4 C23.5361516,4 23.6927114,4.05 23.8492711,4.1 C24.0058309,4.15 24.1623907,4.25 24.371137,4.4 L24.1102041,4.75 Z" id="Shape"></path>
                        <path d="M36.3218659,4.15 C35.9043732,4.5 35.3303207,4.7 34.7040816,4.7 L33.138484,4.7 L33.138484,8.65 L32.6688047,8.65 L32.6688047,0.7 L34.7040816,0.7 C35.3303207,0.7 35.8521866,0.9 36.3218659,1.25 C36.7393586,1.6 36.948105,2.1 36.948105,2.7 C37.0002915,3.3 36.7393586,3.8 36.3218659,4.15 Z M35.9565598,1.55 C35.6434402,1.3 35.2259475,1.15 34.7040816,1.15 L33.138484,1.15 L33.138484,4.2 L34.7040816,4.2 C35.2259475,4.2 35.6434402,4.05 35.9565598,3.8 C36.3218659,3.5 36.4784257,3.15 36.4784257,2.65 C36.4784257,2.15 36.3218659,1.85 35.9565598,1.55 Z" id="Shape"></path>
                        <path d="M41.8014577,4.75 C41.6970845,4.65 41.5405248,4.6 41.383965,4.55 C41.2274052,4.5 41.1230321,4.45 40.9664723,4.45 C40.8099125,4.45 40.7055394,4.5 40.6011662,4.55 C40.496793,4.65 40.3924198,4.7 40.2880466,4.85 C40.1836735,4.95 40.1314869,5.1 40.0793003,5.25 C40.0271137,5.4 40.0271137,5.5 40.0271137,5.65 L40.0271137,8.65 L39.5574344,8.65 L39.5574344,4.05 L40.0271137,4.05 L40.0271137,4.65 C40.1314869,4.5 40.2358601,4.3 40.4446064,4.2 C40.6011662,4.05 40.8099125,4 40.9664723,4 C41.2274052,4 41.383965,4.05 41.5405248,4.1 C41.6970845,4.15 41.8536443,4.25 42.0623907,4.4 L41.8014577,4.75 Z" id="Shape"></path>
                        <path d="M44.6717201,6.3 C44.6717201,6.9 44.8282799,7.4 45.193586,7.8 C45.5588921,8.15 46.080758,8.35 46.7069971,8.35 C47.0201166,8.35 47.3332362,8.3 47.5941691,8.2 C47.9072886,8.05 48.2204082,7.8 48.4813411,7.4 L48.8988338,7.6 C48.5857143,8.15 48.116035,8.5 47.4897959,8.7 C47.228863,8.75 46.96793,8.8 46.6548105,8.8 C45.9241983,8.8 45.3501458,8.55 44.8804665,8.1 C44.4107872,7.65 44.1498542,7.1 44.1498542,6.4 C44.1498542,5.7 44.3586006,5.15 44.8282799,4.7 C45.2979592,4.25 45.8720117,4 46.6026239,4 C47.3332362,4 47.9072886,4.2 48.3769679,4.65 C48.8466472,5.05 49.1075802,5.6 49.1075802,6.3 L44.6717201,6.3 L44.6717201,6.3 Z M47.9072886,4.85 C47.5419825,4.6 47.1244898,4.45 46.6548105,4.45 C45.6632653,4.45 45.0370262,4.9 44.7239067,5.85 L48.5857143,5.85 C48.5335277,5.45 48.3247813,5.1 47.9072886,4.85 Z" id="Shape"></path>
                        <path d="M56.361516,10.85 L56.361516,7.85 C55.8396501,8.45 55.2134111,8.75 54.4306122,8.75 C53.7521866,8.75 53.1259475,8.5 52.6562682,8.05 C52.1865889,7.6 51.925656,7.05 51.925656,6.35 C51.925656,5.7 52.1865889,5.1 52.6562682,4.65 C53.1259475,4.2 53.7,3.95 54.4306122,3.95 C55.2134111,3.95 55.8396501,4.25 56.361516,4.85 L56.361516,4 L56.8311953,4 L56.8311953,10.75 L56.361516,10.75 L56.361516,10.85 Z M55.7874636,5.05 C55.3699708,4.65 54.9002915,4.5 54.3784257,4.5 C53.8043732,4.5 53.3346939,4.7 52.9693878,5.05 C52.551895,5.45 52.3953353,5.9 52.3953353,6.4 C52.3953353,6.95 52.6040816,7.4 52.9693878,7.75 C53.3346939,8.1 53.8565598,8.3 54.3784257,8.3 C54.9524781,8.3 55.4221574,8.1 55.7874636,7.75 C56.2049563,7.35 56.361516,6.9 56.361516,6.4 C56.4137026,5.85 56.2049563,5.4 55.7874636,5.05 Z" id="Shape"></path>
                        <path d="M63.3023324,8.25 C62.9892128,8.6 62.5195335,8.75 61.945481,8.75 C61.3714286,8.75 60.9539359,8.6 60.6408163,8.25 C60.3276968,7.95 60.171137,7.5 60.171137,6.9 L60.171137,4.05 L60.6408163,4.05 L60.6408163,6.9 C60.6408163,7.35 60.7451895,7.65 60.9539359,7.9 C61.1626822,8.15 61.4758017,8.25 61.945481,8.25 C62.8326531,8.25 63.3023324,7.8 63.3023324,6.9 L63.3023324,4.05 L63.7720117,4.05 L63.7720117,6.9 C63.7720117,7.5 63.6154519,7.95 63.3023324,8.25 Z" id="Shape"></path>
                        <path d="M71.3390671,8.65 L71.3390671,7.85 C70.8172012,8.45 70.1909621,8.7 69.4081633,8.7 C68.7297376,8.7 68.1034985,8.45 67.6338192,8 C67.1641399,7.55 66.903207,7 66.903207,6.3 C66.903207,5.65 67.1641399,5.05 67.6338192,4.6 C68.1034985,4.15 68.677551,3.9 69.4081633,3.9 C70.1909621,3.9 70.8172012,4.2 71.3390671,4.75 L71.3390671,3.95 L71.8087464,3.95 L71.8087464,8.55 L71.3390671,8.55 L71.3390671,8.65 Z M70.8172012,5.05 C70.3997085,4.65 69.9300292,4.5 69.4081633,4.5 C68.8341108,4.5 68.3644315,4.7 67.9991254,5.05 C67.5816327,5.45 67.4250729,5.9 67.4250729,6.4 C67.4250729,6.95 67.6338192,7.4 67.9991254,7.75 C68.3644315,8.1 68.8862974,8.3 69.4081633,8.3 C69.9822157,8.3 70.451895,8.1 70.8172012,7.75 C71.2346939,7.35 71.3912536,6.9 71.3912536,6.4 C71.4434402,5.85 71.2346939,5.4 70.8172012,5.05 Z" id="Shape"></path>
                        <polygon id="Shape" points="75.4618076 8.65 75.4618076 0.45 75.9314869 0.45 75.9314869 8.65 75.4618076 8.65"></polygon>
                        <path d="M79.3758017,3.25 C79.2714286,3.25 79.219242,3.2 79.1148688,3.15 C79.0626822,3.1 79.0104956,3 79.0104956,2.9 C79.0104956,2.7 79.1148688,2.6 79.3758017,2.55 C79.5845481,2.55 79.6889213,2.65 79.7411079,2.9 C79.7411079,3.15 79.6367347,3.25 79.3758017,3.25 Z M79.1148688,8.65 L79.1148688,4.05 L79.5845481,4.05 L79.5845481,8.65 L79.1148688,8.65 Z" id="Shape"></path>
                        <path d="M85.0641399,0.9 L84.7510204,0.85 C84.3335277,0.85 84.1247813,1.1 84.1247813,1.6 L84.1247813,4.1 L85.2728863,4.1 L85.2728863,4.55 L84.1247813,4.55 L84.1247813,8.7 L83.655102,8.7 L83.655102,4.55 L82.9766764,4.55 L82.9766764,4.1 L83.6029155,4.1 L83.6029155,1.5 C83.6029155,0.8 83.9682216,0.45 84.6988338,0.45 C84.8553936,0.45 84.9597668,0.45 85.0119534,0.45 C85.1163265,0.45 85.2206997,0.5 85.3250729,0.55 L85.3250729,1 L85.0641399,0.9 Z" id="Shape"></path>
                        <path d="M88.2475219,3.25 C88.1431487,3.25 88.0909621,3.2 87.9865889,3.15 C87.9344023,3.1 87.8822157,3 87.8822157,2.9 C87.8822157,2.7 87.9865889,2.6 88.2475219,2.55 C88.4562682,2.55 88.5606414,2.65 88.612828,2.9 C88.6650146,3.15 88.5084548,3.25 88.2475219,3.25 Z M88.0387755,8.65 L88.0387755,4.05 L88.5084548,4.05 L88.5084548,8.65 L88.0387755,8.65 Z" id="Shape"></path>
                        <path d="M94.4055394,8.75 C93.6749271,8.75 93.1008746,8.5 92.6311953,8.05 C92.161516,7.6 91.9005831,7.05 91.9005831,6.35 C91.9005831,5.65 92.161516,5.1 92.6311953,4.65 C93.1008746,4.2 93.6749271,3.95 94.4055394,3.95 C95.0317784,3.95 95.5014577,4.1 95.8667638,4.35 L95.8667638,4.9 L95.5536443,4.7 L95.2405248,4.55 C94.9274052,4.45 94.6664723,4.4 94.4055394,4.4 C93.8314869,4.4 93.309621,4.6 92.9443149,4.95 C92.5790087,5.3 92.3702624,5.8 92.3702624,6.35 C92.3702624,6.9 92.5790087,7.4 92.9443149,7.75 C93.309621,8.1 93.8314869,8.3 94.4055394,8.3 C94.9795918,8.3 95.4492711,8.1 95.8667638,7.75 L95.8667638,8.3 C95.4492711,8.6 94.9795918,8.75 94.4055394,8.75 Z" id="Shape"></path>
                        <path d="M102.65102,8.65 L102.65102,7.85 C102.129155,8.45 101.502915,8.7 100.720117,8.7 C100.041691,8.7 99.4154519,8.45 98.9457726,8 C98.4760933,7.55 98.2151603,7 98.2151603,6.3 C98.2151603,5.65 98.4760933,5.05 98.9457726,4.6 C99.4154519,4.15 99.9895044,3.9 100.720117,3.9 C101.502915,3.9 102.129155,4.2 102.65102,4.75 L102.65102,3.95 L103.1207,3.95 L103.1207,8.55 L102.65102,8.55 L102.65102,8.65 Z M102.129155,5.05 C101.711662,4.65 101.241983,4.5 100.720117,4.5 C100.146064,4.5 99.6763848,4.7 99.3110787,5.05 C98.893586,5.45 98.7370262,5.9 98.7370262,6.4 C98.7370262,6.95 98.9457726,7.4 99.3110787,7.75 C99.6763848,8.1 100.198251,8.3 100.720117,8.3 C101.294169,8.3 101.763848,8.1 102.129155,7.75 C102.546647,7.35 102.703207,6.9 102.703207,6.4 C102.755394,5.85 102.546647,5.4 102.129155,5.05 Z" id="Shape"></path>
                        <polygon id="Shape" points="107.347813 4.55 107.347813 8.7 106.878134 8.7 106.878134 4.55 106.251895 4.55 106.251895 4.1 106.878134 4.1 106.878134 2.1 107.347813 2.1 107.347813 4.1 108.443732 4.1 108.443732 4.55"></polygon>
                        <path d="M111.940233,3.25 C111.83586,3.25 111.783673,3.2 111.6793,3.15 C111.627114,3.1 111.574927,3 111.574927,2.9 C111.574927,2.7 111.6793,2.6 111.940233,2.55 C112.14898,2.55 112.253353,2.65 112.305539,2.9 C112.305539,3.15 112.201166,3.25 111.940233,3.25 Z M111.6793,8.65 L111.6793,4.05 L112.14898,4.05 L112.14898,8.65 L111.6793,8.65 Z" id="Shape"></path>
                        <path d="M119.716035,8.05 C119.246356,8.5 118.672303,8.75 117.941691,8.75 C117.263265,8.75 116.637026,8.5 116.167347,8.05 C115.697668,7.6 115.436735,7.05 115.436735,6.35 C115.436735,5.7 115.697668,5.15 116.167347,4.65 C116.637026,4.2 117.211079,3.95 117.941691,3.95 C118.620117,3.95 119.194169,4.2 119.716035,4.65 C120.237901,5.1 120.446647,5.65 120.446647,6.35 C120.394461,7.05 120.185714,7.6 119.716035,8.05 Z M119.350729,5 C118.985423,4.6 118.463557,4.45 117.941691,4.45 C117.419825,4.45 116.950146,4.65 116.532653,5.05 C116.11516,5.45 115.906414,5.9 115.906414,6.4 C115.906414,6.95 116.11516,7.4 116.480466,7.75 C116.845773,8.1 117.367638,8.3 117.889504,8.3 C118.463557,8.3 118.933236,8.1 119.298542,7.75 C119.716035,7.35 119.872595,6.9 119.872595,6.4 C119.924781,5.85 119.768222,5.4 119.350729,5 Z" id="Shape"></path>
                        <path d="M126.917784,8.65 L126.917784,5.9 C126.917784,4.95 126.448105,4.45 125.560933,4.45 C125.091254,4.45 124.778134,4.6 124.517201,4.85 C124.256268,5.1 124.151895,5.45 124.151895,5.9 L124.151895,8.7 L123.682216,8.7 L123.682216,4.1 L124.151895,4.1 L124.151895,4.65 C124.360641,4.25 124.830321,4.05 125.508746,4.05 C126.082799,4.05 126.552478,4.2 126.865598,4.55 C127.178717,4.9 127.335277,5.35 127.335277,5.9 L127.335277,8.7 L126.917784,8.7 L126.917784,8.65 Z" id="Shape"></path>
                        <path d="M139.807872,4.15 C139.390379,4.5 138.816327,4.7 138.190087,4.7 L136.62449,4.7 L136.62449,8.65 L136.15481,8.65 L136.15481,0.7 L138.190087,0.7 C138.816327,0.7 139.338192,0.9 139.807872,1.25 C140.225364,1.6 140.434111,2.1 140.434111,2.7 C140.434111,3.3 140.225364,3.8 139.807872,4.15 Z M139.442566,1.55 C139.129446,1.3 138.711953,1.15 138.190087,1.15 L136.62449,1.15 L136.62449,4.2 L138.190087,4.2 C138.711953,4.2 139.129446,4.05 139.442566,3.8 C139.807872,3.5 139.964431,3.15 139.964431,2.65 C139.964431,2.15 139.807872,1.85 139.442566,1.55 Z" id="Shape"></path>
                        <path d="M146.226822,8.65 L146.226822,7.85 C145.704956,8.45 145.078717,8.7 144.295918,8.7 C143.617493,8.7 142.991254,8.45 142.521574,8 C142.051895,7.55 141.790962,7 141.790962,6.3 C141.790962,5.65 142.051895,5.05 142.521574,4.6 C142.991254,4.15 143.565306,3.9 144.295918,3.9 C145.078717,3.9 145.704956,4.2 146.226822,4.75 L146.226822,3.95 L146.696501,3.95 L146.696501,8.55 L146.226822,8.55 L146.226822,8.65 Z M145.757143,5.05 C145.33965,4.65 144.869971,4.5 144.348105,4.5 C143.774052,4.5 143.304373,4.7 142.939067,5.05 C142.521574,5.45 142.365015,5.9 142.365015,6.4 C142.365015,6.95 142.573761,7.4 142.939067,7.75 C143.304373,8.1 143.826239,8.3 144.348105,8.3 C144.922157,8.3 145.391837,8.1 145.757143,7.75 C146.174636,7.35 146.331195,6.9 146.331195,6.4 C146.331195,5.85 146.122449,5.4 145.757143,5.05 Z" id="Shape"></path>
                        <path d="M152.489213,4.75 C152.38484,4.65 152.22828,4.6 152.07172,4.55 C151.91516,4.5 151.810787,4.45 151.654227,4.45 C151.497668,4.45 151.393294,4.5 151.288921,4.55 C151.184548,4.65 151.080175,4.7 150.975802,4.85 C150.871429,4.95 150.819242,5.1 150.767055,5.25 C150.714869,5.4 150.714869,5.5 150.714869,5.65 L150.714869,8.65 L150.24519,8.65 L150.24519,4.05 L150.714869,4.05 L150.714869,4.65 C150.819242,4.5 150.923615,4.3 151.132362,4.2 C151.288921,4.05 151.497668,4 151.654227,4 C151.91516,4 152.07172,4.05 152.22828,4.1 C152.38484,4.15 152.541399,4.25 152.750146,4.4 L152.489213,4.75 Z" id="Shape"></path>
                        <polygon id="Shape" points="156.611953 4.55 156.611953 8.7 156.142274 8.7 156.142274 4.55 155.516035 4.55 155.516035 4.1 156.142274 4.1 156.142274 2.1 156.611953 2.1 156.611953 4.1 157.707872 4.1 157.707872 4.55"></polygon>
                        <path d="M164.126822,8.65 L164.126822,5.9 C164.126822,4.95 163.657143,4.45 162.769971,4.45 C162.300292,4.45 161.987172,4.6 161.726239,4.85 C161.465306,5.1 161.360933,5.45 161.360933,5.9 L161.360933,8.7 L160.891254,8.7 L160.891254,4.1 L161.360933,4.1 L161.360933,4.65 C161.569679,4.25 162.039359,4.05 162.717784,4.05 C163.291837,4.05 163.761516,4.2 164.074636,4.55 C164.387755,4.9 164.544315,5.35 164.544315,5.9 L164.544315,8.7 L164.126822,8.7 L164.126822,8.65 Z" id="Shape"></path>
                        <path d="M168.301749,6.3 C168.301749,6.9 168.458309,7.4 168.823615,7.8 C169.188921,8.15 169.710787,8.35 170.337026,8.35 C170.650146,8.35 170.963265,8.3 171.224198,8.2 C171.537318,8.05 171.850437,7.8 172.11137,7.4 L172.528863,7.6 C172.215743,8.15 171.746064,8.5 171.119825,8.7 C170.858892,8.75 170.597959,8.8 170.28484,8.8 C169.554227,8.8 168.980175,8.55 168.510496,8.1 C168.040816,7.65 167.779883,7.1 167.779883,6.4 C167.779883,5.7 167.98863,5.15 168.458309,4.7 C168.927988,4.25 169.502041,4 170.232653,4 C170.963265,4 171.537318,4.2 172.006997,4.65 C172.476676,5.05 172.737609,5.6 172.737609,6.3 L168.301749,6.3 L168.301749,6.3 Z M171.589504,4.85 C171.224198,4.6 170.806706,4.45 170.337026,4.45 C169.345481,4.45 168.719242,4.9 168.406122,5.85 L172.26793,5.85 C172.163557,5.45 171.95481,5.1 171.589504,4.85 Z" id="Shape"></path>
                        <path d="M178.269388,4.75 C178.165015,4.65 178.008455,4.6 177.851895,4.55 C177.695335,4.5 177.590962,4.45 177.434402,4.45 C177.277843,4.45 177.173469,4.5 177.069096,4.55 C176.964723,4.65 176.86035,4.7 176.755977,4.85 C176.651603,4.95 176.599417,5.1 176.54723,5.25 C176.495044,5.4 176.495044,5.5 176.495044,5.65 L176.495044,8.65 L176.025364,8.65 L176.025364,4.05 L176.495044,4.05 L176.495044,4.65 C176.599417,4.5 176.70379,4.3 176.912536,4.2 C177.069096,4.05 177.277843,4 177.434402,4 C177.695335,4 177.851895,4.05 178.008455,4.1 C178.165015,4.15 178.321574,4.25 178.530321,4.4 L178.269388,4.75 Z" id="Shape"></path>
                    </g>
                    <g id="Group" transform="translate(179.000000, 48.000000)" fill-rule="nonzero" fill="#FFFFFF">
                        <polygon id="Shape" points="0.85 1.85 0.85 0.25 0.25 0.25 0.25 0 1.7 0 1.7 0.2 1.1 0.2 1.1 1.8 0.85 1.8"></polygon>
                        <path d="M1.95,1.85 L1.95,0 L2.3,0 L2.75,1.3 C2.8,1.4 2.8,1.5 2.85,1.55 C2.85,1.5 2.9,1.4 2.95,1.25 L3.4,0 L3.75,0 L3.75,1.85 L3.5,1.85 L3.5,0.3 L2.95,1.85 L2.75,1.85 L2.2,0.3 L2.2,1.85 L1.95,1.85 Z" id="Shape"></path>
                    </g>
                </g>
            </g>
        </g>
    </g>
</svg>