<?xml version="1.0" encoding="utf-8"?>
<!-- Generator: Adobe Illustrator 21.1.0, SVG Export Plug-In . SVG Version: 6.00 Build 0)  -->
<svg version="1.1" id="Layer_1" xmlns="http://www.w3.org/2000/svg" xmlns:xlink="http://www.w3.org/1999/xlink" x="0px" y="0px"
	 viewBox="0 0 378.3 143.7" style="enable-background:new 0 0 378.3 143.7;" xml:space="preserve">
<style type="text/css">
	.st0{fill:#8DC63F;}
	.st1{fill:#165FAC;}
	.st2{fill:#B3B3B3;}
	.st3{fill:none;stroke:#B3B3B3;stroke-width:2;stroke-linecap:round;stroke-miterlimit:10;}
	.st4{fill:#808080;}
	.st5{fill:#808080;stroke:#939598;stroke-width:0.5;stroke-miterlimit:10;}
	.st6{fill:#939598;}
</style>
<g>
	<path class="st0" d="M89.4,34.9c3.1-0.5,7.2-1,12.3-1c6.4,0,11,1.5,14,4.1c2.7,2.4,4.4,6,4.4,10.4c0,4.5-1.3,8.1-3.8,10.6
		c-3.4,3.6-8.9,5.5-15.2,5.5c-1.9,0-3.7-0.1-5.2-0.4v19.9h-6.4V34.9z M95.8,58.9c1.4,0.4,3.2,0.5,5.3,0.5c7.8,0,12.5-3.8,12.5-10.6
		c0-6.6-4.7-9.8-11.7-9.8c-2.8,0-4.9,0.2-6.1,0.5V58.9z"/>
	<path class="st0" d="M128,35c3.3-0.7,7.9-1,12.3-1c6.9,0,11.3,1.3,14.4,4.1c2.5,2.2,3.9,5.6,3.9,9.5c0,6.6-4.1,10.9-9.4,12.7v0.2
		c3.8,1.3,6.1,4.9,7.3,10c1.6,6.9,2.8,11.7,3.8,13.7h-6.6c-0.8-1.4-1.9-5.7-3.3-11.9c-1.5-6.9-4.1-9.5-10-9.7h-6.1v21.6H128V35z
		 M134.4,57.7h6.6c6.9,0,11.2-3.8,11.2-9.5c0-6.4-4.7-9.2-11.5-9.3c-3.1,0-5.3,0.3-6.4,0.6V57.7z"/>
	<path class="st0" d="M192.8,60.8h-19.4v18H195v5.4h-28V34.3h26.9v5.4h-20.5v15.7h19.4V60.8z"/>
	<path class="st1" d="M243.7,91.4c-6.7-1.8-13.3-3.8-19.1-5.8c-1-0.4-2.1-0.7-3-0.7c-11.8-0.4-21.9-9.2-21.9-25.2
		c0-16,9.8-26.2,23.2-26.2c13.5,0,22.3,10.5,22.3,25.2c0,12.8-5.9,21-14.2,23.9v0.3c4.9,1.3,10.3,2.4,14.6,3.2L243.7,91.4z
		 M238.4,59c0-10-5.2-20.2-15.7-20.2c-10.9,0-16.2,10-16.1,20.8c-0.1,10.6,5.8,20.1,15.8,20.1C232.6,79.7,238.4,70.4,238.4,59z"/>
	<path class="st1" d="M259.2,34.3v29.5c0,11.2,4.9,15.9,11.6,15.9c7.4,0,12.1-4.9,12.1-15.9V34.3h6.5v29c0,15.3-8.1,21.6-18.8,21.6
		c-10.2,0-17.9-5.8-17.9-21.3V34.3H259.2z"/>
	<path class="st1" d="M305.4,68.5l-5.2,15.7h-6.6l16.9-49.8h7.8l17,49.8h-6.9L323,68.5H305.4z M321.7,63.4l-4.9-14.3
		c-1.1-3.3-1.8-6.2-2.6-9.1h-0.1c-0.7,3-1.6,6-2.5,9l-4.9,14.4H321.7z"/>
	<path class="st1" d="M341.8,34.3h6.4v44.4h21.3v5.4h-27.7V34.3z"/>
</g>
<path class="st1" d="M16.6,88V30c0-0.8,0.7-1.4,1.4-1.4h9.9c-1.6,1.5-2.8,3.4-2.8,5.6h34.2c0-2.2-1.2-4.1-2.8-5.6h9.9
	c0.8,0,1.4,0.7,1.4,1.4V34v0.3v12.4h7.1V34.3V34V30c0-4.7-3.8-8.5-8.5-8.5H51.8c-0.1-5.2-4.4-9.3-9.6-9.3c-5.2,0-9.5,4.2-9.6,9.3H18
	c-4.7,0-8.5,3.8-8.5,8.5v58c0,4.7,3.8,8.5,8.5,8.5h21.7v-7.1H18C17.3,89.5,16.6,88.8,16.6,88z M42.2,17.8c2.2,0,3.9,1.8,3.9,3.9
	c0,2.2-1.8,3.9-3.9,3.9c-2.2,0-3.9-1.8-3.9-3.9C38.3,19.6,40.1,17.8,42.2,17.8z"/>
<g>
	<circle class="st2" cx="24.3" cy="42.7" r="1.9"/>
	<line class="st3" x1="30.3" y1="42.7" x2="61.7" y2="42.7"/>
</g>
<g>
	<circle class="st2" cx="24.3" cy="55.2" r="1.9"/>
	<line class="st3" x1="30.3" y1="55.2" x2="61.7" y2="55.2"/>
</g>
<g>
	<circle class="st2" cx="24.3" cy="68.7" r="1.9"/>
	<line class="st3" x1="30.3" y1="68.7" x2="61.7" y2="68.7"/>
</g>
<g>
	<circle class="st2" cx="24.3" cy="81.3" r="1.9"/>
	<line class="st3" x1="30.3" y1="81.3" x2="61.7" y2="81.3"/>
</g>
<path class="st4" d="M48.1,95.4c0,0,28.7-44.7,60-50.5c0,0-31.4-2.4-54.9,24.3l-5.5-17l-13.1,3.6L48.1,95.4z"/>
<g>
	<path class="st5" d="M23.8,118.4v7.9h-0.9v-7.9l-4.5-7.9h1l3.9,6.9l4-6.9h1L23.8,118.4z"/>
	<path class="st5" d="M38.7,125.1c-0.9,0.9-2,1.4-3.4,1.4c-1.3,0-2.5-0.5-3.4-1.4c-0.9-0.9-1.4-2-1.4-3.4c0-1.3,0.5-2.4,1.4-3.4
		c0.9-0.9,2-1.4,3.4-1.4c1.3,0,2.4,0.5,3.4,1.4s1.4,2,1.4,3.4C40.1,123.1,39.6,124.2,38.7,125.1z M38.1,119
		c-0.7-0.8-1.7-1.1-2.7-1.1c-1,0-1.9,0.4-2.7,1.2c-0.8,0.8-1.2,1.7-1.2,2.7c0,1.1,0.4,2,1.1,2.7c0.8,0.8,1.7,1.1,2.7,1.1
		c1.1,0,2-0.4,2.7-1.1c0.8-0.8,1.1-1.7,1.1-2.7C39.2,120.7,38.8,119.8,38.1,119z"/>
	<path class="st5" d="M52.2,125.5c-0.6,0.7-1.5,1-2.6,1c-1.1,0-1.9-0.3-2.5-1c-0.6-0.6-0.9-1.5-0.9-2.7v-5.7h0.9v5.7
		c0,0.9,0.2,1.5,0.6,2c0.4,0.5,1,0.7,1.9,0.7c1.7,0,2.6-0.9,2.6-2.7v-5.7h0.9v5.7C53.1,124,52.8,124.9,52.2,125.5z"/>
	<path class="st5" d="M64.2,118.5c-0.2-0.2-0.5-0.3-0.8-0.4c-0.3-0.1-0.5-0.2-0.8-0.2c-0.3,0-0.5,0.1-0.7,0.2
		c-0.2,0.2-0.4,0.3-0.6,0.6c-0.2,0.2-0.3,0.5-0.4,0.8s-0.1,0.5-0.1,0.8v6h-0.9v-9.2h0.9v1.2c0.2-0.3,0.4-0.7,0.8-0.9
		c0.3-0.3,0.7-0.4,1-0.4c0.5,0,0.8,0.1,1.1,0.2c0.3,0.1,0.6,0.3,1,0.6L64.2,118.5z"/>
	<path class="st5" d="M87.6,117.3c-0.8,0.7-1.9,1.1-3.1,1.1h-3v7.9h-0.9v-15.9h3.9c1.2,0,2.2,0.4,3.1,1.1c0.8,0.7,1.2,1.7,1.2,2.9
		C88.9,115.6,88.4,116.6,87.6,117.3z M86.9,112.1c-0.6-0.5-1.4-0.8-2.4-0.8h-3v6.1h3c1,0,1.8-0.3,2.4-0.8c0.7-0.6,1-1.3,1-2.3
		S87.6,112.7,86.9,112.1z"/>
	<path class="st5" d="M98.1,118.5c-0.2-0.2-0.5-0.3-0.8-0.4c-0.3-0.1-0.5-0.2-0.8-0.2c-0.3,0-0.5,0.1-0.7,0.2
		c-0.2,0.2-0.4,0.3-0.6,0.6c-0.2,0.2-0.3,0.5-0.4,0.8s-0.1,0.5-0.1,0.8v6h-0.9v-9.2h0.9v1.2c0.2-0.3,0.4-0.7,0.8-0.9
		c0.3-0.3,0.7-0.4,1-0.4c0.5,0,0.8,0.1,1.1,0.2c0.3,0.1,0.6,0.3,1,0.6L98.1,118.5z"/>
	<path class="st5" d="M103.6,121.6c0,1.2,0.3,2.2,1,3c0.7,0.7,1.7,1.1,2.9,1.1c0.6,0,1.2-0.1,1.7-0.3c0.6-0.3,1.2-0.8,1.7-1.6
		l0.8,0.4c-0.6,1.1-1.5,1.8-2.7,2.2c-0.5,0.1-1,0.2-1.6,0.2c-1.4,0-2.5-0.5-3.4-1.4c-0.9-0.9-1.4-2-1.4-3.4c0-1.4,0.4-2.5,1.3-3.4
		c0.9-0.9,2-1.4,3.4-1.4c1.4,0,2.5,0.4,3.4,1.3c0.9,0.8,1.4,1.9,1.4,3.3H103.6z M109.8,118.7c-0.7-0.5-1.5-0.8-2.4-0.8
		c-1.9,0-3.1,0.9-3.7,2.8h7.4C111,119.9,110.6,119.2,109.8,118.7z"/>
	<path class="st5" d="M126,130.7v-6c-1,1.2-2.2,1.8-3.7,1.8c-1.3,0-2.5-0.5-3.4-1.4c-0.9-0.9-1.4-2-1.4-3.4c0-1.3,0.5-2.5,1.4-3.4
		c0.9-0.9,2-1.4,3.4-1.4c1.5,0,2.7,0.6,3.7,1.8v-1.7h0.9v13.5H126z M124.9,119.1c-0.8-0.8-1.7-1.1-2.7-1.1c-1.1,0-2,0.4-2.7,1.1
		c-0.8,0.8-1.1,1.7-1.1,2.7c0,1.1,0.4,2,1.1,2.7s1.7,1.1,2.7,1.1c1.1,0,2-0.4,2.7-1.1c0.8-0.8,1.1-1.7,1.1-2.7
		C126.1,120.7,125.7,119.8,124.9,119.1z"/>
	<path class="st5" d="M139.3,125.5c-0.6,0.7-1.5,1-2.6,1c-1.1,0-1.9-0.3-2.5-1c-0.6-0.6-0.9-1.5-0.9-2.7v-5.7h0.9v5.7
		c0,0.9,0.2,1.5,0.6,2c0.4,0.5,1,0.7,1.9,0.7c1.7,0,2.6-0.9,2.6-2.7v-5.7h0.9v5.7C140.2,124,139.9,124.9,139.3,125.5z"/>
	<path class="st5" d="M154.7,126.3v-1.6c-1,1.2-2.2,1.7-3.7,1.7c-1.3,0-2.5-0.5-3.4-1.4c-0.9-0.9-1.4-2-1.4-3.4
		c0-1.3,0.5-2.5,1.4-3.4c0.9-0.9,2-1.4,3.4-1.4c1.5,0,2.7,0.6,3.7,1.7v-1.6h0.9v9.2H154.7z M153.7,119.1c-0.8-0.8-1.7-1.1-2.7-1.1
		c-1.1,0-2,0.4-2.7,1.1c-0.8,0.8-1.1,1.7-1.1,2.7c0,1.1,0.4,2,1.1,2.7s1.7,1.1,2.7,1.1c1.1,0,2-0.4,2.7-1.1c0.8-0.8,1.1-1.7,1.1-2.7
		C154.9,120.7,154.5,119.8,153.7,119.1z"/>
	<path class="st5" d="M162.6,126.3v-16.4h0.9v16.4H162.6z"/>
	<path class="st5" d="M170.1,115.5c-0.2,0-0.3-0.1-0.5-0.2c-0.1-0.1-0.2-0.3-0.2-0.5c0-0.4,0.2-0.6,0.7-0.7c0.4,0,0.6,0.2,0.7,0.7
		C170.8,115.3,170.6,115.5,170.1,115.5z M169.6,126.3v-9.2h0.9v9.2H169.6z"/>
	<path class="st5" d="M181,110.8l-0.6-0.1c-0.8,0-1.2,0.5-1.2,1.5v5h2.2v0.9h-2.2v8.3h-0.9v-8.3H177v-0.9h1.2v-5.2
		c0-1.4,0.7-2.1,2.1-2.1c0.3,0,0.5,0,0.6,0c0.2,0,0.4,0.1,0.6,0.2v0.9L181,110.8z"/>
	<path class="st5" d="M187.1,115.5c-0.2,0-0.3-0.1-0.5-0.2c-0.1-0.1-0.2-0.3-0.2-0.5c0-0.4,0.2-0.6,0.7-0.7c0.4,0,0.6,0.2,0.7,0.7
		C187.9,115.3,187.6,115.5,187.1,115.5z M186.7,126.3v-9.2h0.9v9.2H186.7z"/>
	<path class="st5" d="M198.9,126.5c-1.4,0-2.5-0.5-3.4-1.4c-0.9-0.9-1.4-2-1.4-3.4c0-1.4,0.5-2.5,1.4-3.4c0.9-0.9,2-1.4,3.4-1.4
		c1.2,0,2.1,0.3,2.8,0.8v1.1l-0.6-0.4l-0.6-0.3c-0.6-0.2-1.1-0.3-1.6-0.3c-1.1,0-2.1,0.4-2.8,1.1c-0.7,0.7-1.1,1.7-1.1,2.8
		c0,1.1,0.4,2.1,1.1,2.8c0.7,0.7,1.7,1.1,2.8,1.1c1.1,0,2-0.4,2.8-1.1v1.1C200.9,126.2,200,126.5,198.9,126.5z"/>
	<path class="st5" d="M214.7,126.3v-1.6c-1,1.2-2.2,1.7-3.7,1.7c-1.3,0-2.5-0.5-3.4-1.4c-0.9-0.9-1.4-2-1.4-3.4
		c0-1.3,0.5-2.5,1.4-3.4c0.9-0.9,2-1.4,3.4-1.4c1.5,0,2.7,0.6,3.7,1.7v-1.6h0.9v9.2H214.7z M213.7,119.1c-0.8-0.8-1.7-1.1-2.7-1.1
		c-1.1,0-2,0.4-2.7,1.1c-0.8,0.8-1.1,1.7-1.1,2.7c0,1.1,0.4,2,1.1,2.7s1.7,1.1,2.7,1.1c1.1,0,2-0.4,2.7-1.1c0.8-0.8,1.1-1.7,1.1-2.7
		C214.9,120.7,214.5,119.8,213.7,119.1z"/>
	<path class="st5" d="M223.7,118.1v8.3h-0.9v-8.3h-1.2v-0.9h1.2v-4h0.9v4h2.1v0.9H223.7z"/>
	<path class="st5" d="M232.5,115.5c-0.2,0-0.3-0.1-0.5-0.2c-0.1-0.1-0.2-0.3-0.2-0.5c0-0.4,0.2-0.6,0.7-0.7c0.4,0,0.6,0.2,0.7,0.7
		C233.2,115.3,233,115.5,232.5,115.5z M232,126.3v-9.2h0.9v9.2H232z"/>
	<path class="st5" d="M247.4,125.1c-0.9,0.9-2,1.4-3.4,1.4c-1.3,0-2.5-0.5-3.4-1.4c-0.9-0.9-1.4-2-1.4-3.4c0-1.3,0.5-2.4,1.4-3.4
		c0.9-0.9,2-1.4,3.4-1.4c1.3,0,2.4,0.5,3.4,1.4s1.4,2,1.4,3.4C248.7,123.1,248.3,124.2,247.4,125.1z M246.7,119
		c-0.7-0.8-1.7-1.1-2.7-1.1c-1,0-1.9,0.4-2.7,1.2c-0.8,0.8-1.2,1.7-1.2,2.7c0,1.1,0.4,2,1.1,2.7s1.7,1.1,2.7,1.1
		c1.1,0,2-0.4,2.7-1.1c0.8-0.8,1.1-1.7,1.1-2.7C247.8,120.7,247.5,119.8,246.7,119z"/>
	<path class="st5" d="M261.2,126.3v-5.5c0-1.9-0.9-2.9-2.6-2.9c-0.9,0-1.5,0.3-2,0.8c-0.5,0.5-0.7,1.2-0.7,2.1v5.6H255v-9.2h0.9v1.1
		c0.4-0.8,1.3-1.2,2.6-1.2c1.1,0,2,0.3,2.6,1c0.6,0.7,0.9,1.6,0.9,2.7v5.6H261.2z"/>
	<path class="st5" d="M285.9,117.3c-0.8,0.7-1.9,1.1-3.1,1.1h-3v7.9h-0.9v-15.9h3.9c1.2,0,2.2,0.4,3.1,1.1c0.8,0.7,1.2,1.7,1.2,2.9
		C287.1,115.6,286.7,116.6,285.9,117.3z M285.2,112.1c-0.6-0.5-1.4-0.8-2.4-0.8h-3v6.1h3c1,0,1.8-0.3,2.4-0.8c0.7-0.6,1-1.3,1-2.3
		S285.9,112.7,285.2,112.1z"/>
	<path class="st5" d="M298.2,126.3v-1.6c-1,1.2-2.2,1.7-3.7,1.7c-1.3,0-2.5-0.5-3.4-1.4c-0.9-0.9-1.4-2-1.4-3.4
		c0-1.3,0.5-2.5,1.4-3.4c0.9-0.9,2-1.4,3.4-1.4c1.5,0,2.7,0.6,3.7,1.7v-1.6h0.9v9.2H298.2z M297.3,119.1c-0.8-0.8-1.7-1.1-2.7-1.1
		c-1.1,0-2,0.4-2.7,1.1c-0.8,0.8-1.1,1.7-1.1,2.7c0,1.1,0.4,2,1.1,2.7s1.7,1.1,2.7,1.1c1.1,0,2-0.4,2.7-1.1c0.8-0.8,1.1-1.7,1.1-2.7
		C298.4,120.7,298,119.8,297.3,119.1z"/>
	<path class="st5" d="M310.2,118.5c-0.2-0.2-0.5-0.3-0.8-0.4c-0.3-0.1-0.5-0.2-0.8-0.2c-0.3,0-0.5,0.1-0.7,0.2
		c-0.2,0.2-0.4,0.3-0.6,0.6c-0.2,0.2-0.3,0.5-0.4,0.8s-0.1,0.5-0.1,0.8v6h-0.9v-9.2h0.9v1.2c0.2-0.3,0.4-0.7,0.8-0.9
		c0.3-0.3,0.7-0.4,1-0.4c0.5,0,0.8,0.1,1.1,0.2c0.3,0.1,0.6,0.3,1,0.6L310.2,118.5z"/>
	<path class="st5" d="M318.1,118.1v8.3h-0.9v-8.3H316v-0.9h1.2v-4h0.9v4h2.1v0.9H318.1z"/>
	<path class="st5" d="M332.5,126.3v-5.5c0-1.9-0.9-2.9-2.6-2.9c-0.9,0-1.5,0.3-2,0.8c-0.5,0.5-0.7,1.2-0.7,2.1v5.6h-0.9v-9.2h0.9
		v1.1c0.4-0.8,1.3-1.2,2.6-1.2c1.1,0,2,0.3,2.6,1c0.6,0.7,0.9,1.6,0.9,2.7v5.6H332.5z"/>
	<path class="st5" d="M340.5,121.6c0,1.2,0.3,2.2,1,3c0.7,0.7,1.7,1.1,2.9,1.1c0.6,0,1.2-0.1,1.7-0.3c0.6-0.3,1.2-0.8,1.7-1.6
		l0.8,0.4c-0.6,1.1-1.5,1.8-2.7,2.2c-0.5,0.1-1,0.2-1.6,0.2c-1.4,0-2.5-0.5-3.4-1.4c-0.9-0.9-1.4-2-1.4-3.4c0-1.4,0.4-2.5,1.3-3.4
		c0.9-0.9,2-1.4,3.4-1.4c1.4,0,2.5,0.4,3.4,1.3c0.9,0.8,1.4,1.9,1.4,3.3H340.5z M346.8,118.7c-0.7-0.5-1.5-0.8-2.4-0.8
		c-1.9,0-3.1,0.9-3.7,2.8h7.4C347.9,119.9,347.5,119.2,346.8,118.7z"/>
	<path class="st5" d="M359.6,118.5c-0.2-0.2-0.5-0.3-0.8-0.4c-0.3-0.1-0.5-0.2-0.8-0.2c-0.3,0-0.5,0.1-0.7,0.2
		c-0.2,0.2-0.4,0.3-0.6,0.6c-0.2,0.2-0.3,0.5-0.4,0.8s-0.1,0.5-0.1,0.8v6h-0.9v-9.2h0.9v1.2c0.2-0.3,0.4-0.7,0.8-0.9
		c0.3-0.3,0.7-0.4,1-0.4c0.5,0,0.8,0.1,1.1,0.2c0.3,0.1,0.6,0.3,1,0.6L359.6,118.5z"/>
</g>
<g>
	<path class="st6" d="M354.7,107.7v-3.2h-1.2V104h2.9v0.4h-1.2v3.2H354.7z"/>
	<path class="st6" d="M356.9,107.7V104h0.7l0.9,2.6c0.1,0.2,0.1,0.4,0.2,0.5c0-0.1,0.1-0.3,0.2-0.6l0.9-2.5h0.7v3.7h-0.5v-3.1
		l-1.1,3.1h-0.4l-1.1-3.1v3.1H356.9z"/>
</g>
</svg>
